<svg width="32" height="32" viewBox="0 0 32 32" fill="none" xmlns="http://www.w3.org/2000/svg">
<path d="M15.998 31.9756C24.8279 31.9756 31.9858 24.8176 31.9858 15.9878C31.9858 7.15798 24.8279 0 15.998 0C7.16823 0 0.0102539 7.15798 0.0102539 15.9878C0.0102539 24.8176 7.16823 31.9756 15.998 31.9756Z" fill="#3A5A98"/>
<path d="M27.3074 4.7063C33.551 10.9499 33.5513 21.0733 27.3071 27.3174C21.0632 33.561 10.9397 33.561 4.69604 27.3174L27.3074 4.7063Z" fill="#345387"/>
<path d="M31.8819 17.7885L20.3168 6.22314L14.3122 12.2277L14.6699 12.5854L11.2512 16.0039L14.0494 18.8021L13.6814 19.1699L16.7108 22.1993L13.2183 25.6918L19.1845 31.658C25.9124 30.2964 31.1056 24.7107 31.8819 17.7885Z" fill="#2E4D72"/>
<path d="M13.2024 10.0485C13.2024 10.539 13.2024 12.7298 13.2024 12.7298H11.238V16.0086H13.2024V25.7513H17.2376V16.0086H19.9453C19.9453 16.0086 20.199 14.4361 20.3218 12.7174C19.9693 12.7174 17.2529 12.7174 17.2529 12.7174C17.2529 12.7174 17.2529 10.8097 17.2529 10.4754C17.2529 10.1406 17.6927 9.68999 18.1277 9.68999C18.5619 9.68999 19.4781 9.68999 20.3263 9.68999C20.3263 9.24314 20.3263 7.70094 20.3263 6.27661C19.1937 6.27661 17.9053 6.27661 17.337 6.27661C13.1025 6.27641 13.2024 9.55829 13.2024 10.0485Z" fill="white"/>
</svg>
